# xmcd CD database file
#
# Track frame offsets:
#	150
#	15587
#	40081
#	52011
#	64783
#	78092
#	120639
#	141909
#	154913
#	168949
#	183046
#	212795
#	226746
#	248398
#
# Disc length: 3819 seconds
#
# Revision: 0
# Processed by: cddbd v1.5PL3 Copyright (c) Steve Scherf et al.
# Submitted via: CDex 1.51
#
DISCID=a90ee90e
DTITLE=Various Artist - Jazz Janta
DYEAR=1999
DGENRE=Jazz
TTITLE0=Mack The Knife
TTITLE1=Take Five
TTITLE2=Nice Work If You Can Get It
TTITLE3=The Girl From Ipanema
TTITLE4=Summertime
TTITLE5=So What
TTITLE6=Aguas de Marco
TTITLE7=The Wang Wang Blues
TTITLE8=Mood Indigo
TTITLE9=It Ain't Necessarily So
TTITLE10=Round Midnight
TTITLE11=One O'Clock Jump
TTITLE12=Goodbye Pork Pie Hat
TTITLE13=My Funny Valentine
EXTD=YEAR: 1999
EXTT0=
EXTT1=
EXTT2=
EXTT3=
EXTT4=
EXTT5=
EXTT6=
EXTT7=
EXTT8=
EXTT9=
EXTT10=
EXTT11=
EXTT12=
EXTT13=
PLAYORDER=
